<svg width="138" height="102" viewBox="0 0 138 102" fill="none" xmlns="http://www.w3.org/2000/svg">
<g filter="url(#filter0_dd_1_9)">
<rect x="15" y="15" width="108" height="72" rx="12" fill="#135BEC" fill-opacity="0.2" shape-rendering="crispEdges"/>
<path d="M33 34.4766L46.5 40.5234V49.5234C46.5 53.6953 45.2109 57.5039 42.6328 60.9492C40.0547 64.3945 36.8438 66.5859 33 67.5234C29.1562 66.5859 25.9453 64.3945 23.3672 60.9492C20.7891 57.5039 19.5 53.6953 19.5 49.5234V40.5234L33 34.4766ZM117.023 37.5H92.9766C92.1797 37.5 91.4883 37.793 90.9023 38.3789C90.3164 38.9648 90.0234 39.6797 90.0234 40.5234V56.9766C90.0234 57.8203 90.3164 58.5352 90.9023 59.1211C91.4883 59.707 92.1797 60 92.9766 60H97.4766L96 61.4766V64.5H114V61.4766L112.523 60H117.023C117.82 60 118.512 59.707 119.098 59.1211C119.684 58.5352 119.977 57.8203 119.977 56.9766V40.5234C119.977 39.6797 119.684 38.9648 119.098 38.3789C118.512 37.793 117.82 37.5 117.023 37.5ZM117.023 56.9766H92.9766V40.5234H117.023V56.9766Z" fill="#135BEC"/>
</g>
<defs>
<filter id="filter0_dd_1_9" x="0" y="0" width="138" height="102" filterUnits="userSpaceOnUse" color-interpolation-filters="sRGB">
<feFlood flood-opacity="0" result="BackgroundImageFix"/>
<feColorMatrix in="SourceAlpha" type="matrix" values="0 0 0 0 0 0 0 0 0 0 0 0 0 0 0 0 0 0 127 0" result="hardAlpha"/>
<feOffset/>
<feGaussianBlur stdDeviation="7.5"/>
<feComposite in2="hardAlpha" operator="out"/>
<feColorMatrix type="matrix" values="0 0 0 0 0.0745098 0 0 0 0 0.356863 0 0 0 0 0.92549 0 0 0 0.3 0"/>
<feBlend mode="normal" in2="BackgroundImageFix" result="effect1_dropShadow_1_9"/>
<feColorMatrix in="SourceAlpha" type="matrix" values="0 0 0 0 0 0 0 0 0 0 0 0 0 0 0 0 0 0 127 0" result="hardAlpha"/>
<feMorphology radius="1" operator="dilate" in="SourceAlpha" result="effect2_dropShadow_1_9"/>
<feOffset/>
<feComposite in2="hardAlpha" operator="out"/>
<feColorMatrix type="matrix" values="0 0 0 0 0.0745098 0 0 0 0 0.356863 0 0 0 0 0.92549 0 0 0 0.4 0"/>
<feBlend mode="normal" in2="effect1_dropShadow_1_9" result="effect2_dropShadow_1_9"/>
<feBlend mode="normal" in="SourceGraphic" in2="effect2_dropShadow_1_9" result="shape"/>
</filter>
</defs>
</svg>
